<svg width="71" height="50" viewBox="0 0 71 50" fill="none" xmlns="http://www.w3.org/2000/svg">
<path d="M65.9807 10.0206C63.5193 6.44183 60.8991 4.53314 56.9292 3.49926C54.4678 2.86303 50.9743 2.46539 47.7983 2.46539H34.7768V3.26068H34.9356C38.3498 4.21502 39.2232 5.48748 39.2232 9.46392V37.5376C39.2232 43.8203 38.6674 47.2401 37.3176 48.592C36.8412 47.9558 36.4442 46.8424 35.8884 45.4904C35.6502 44.9337 35.412 44.2975 35.1738 43.5817C34.5386 41.9912 33.427 39.0486 33.1094 38.1738L19.9292 0L6.82833 37.3785C6.43133 38.4124 5.71674 40.6392 5.63734 40.7982C5.00215 42.7069 4.36695 43.8998 3.57296 45.2518C2.46137 47.081 1.58798 48.0353 0.0793992 48.8306L0 48.9102V49.6259H14.133V48.8306H13.9742C12.3069 48.6716 10.4807 47.5582 10.1631 45.4109C10.0837 44.6951 9.92489 42.5479 9.92489 41.7526V41.5935C9.92489 39.8439 10.0043 36.5832 10.7983 33.0044H23.8991L25.8047 39.6053C25.8841 39.8439 25.9635 40.2415 26.1223 40.6392C26.8369 43.1046 27.0751 44.2975 27.0751 45.4109C27.0751 47.3991 26.0429 48.433 23.7403 48.7511H23.5815V49.5464H52.4034C57.0086 49.5464 60.1845 48.433 63.0429 45.9676C67.6481 41.9116 70.427 34.4359 70.427 26.0059C70.3476 19.8026 68.7597 14.0766 65.9807 10.0206ZM62.0901 26.4035C61.9313 35.2312 60.8197 38.81 58.9936 41.8321C55.9764 46.8424 54.5472 48.592 46.6073 48.8306V3.34021C54.4678 3.34021 57.9614 6.20324 60.8991 15.19C61.7725 17.894 62.0901 21.2342 62.0901 26.4035ZM14.133 19.5641L15.4034 15.2695L16.118 13.1222C16.118 13.0427 16.3562 12.486 16.515 11.9293C16.6738 11.4521 16.8326 10.975 16.9914 10.5773L23.4227 32.1296H10.7189C11.6717 28.4713 13.2597 22.6657 14.133 19.5641Z" fill="white"/>
</svg>
