<svg width="215" height="65" viewBox="0 0 215 65" fill="none" xmlns="http://www.w3.org/2000/svg">
<path d="M8.09594 20.2174C8.09594 22.7983 8.79111 23.0851 11.7306 23.2046V24.1246H0.0286691V23.2046C2.45936 23.0851 3.15453 22.7983 3.15453 20.2174V3.34611C3.15453 0.753277 2.45936 0.466507 0.0931702 0.358971V-0.584969H20.7535L20.8932 4.86356H19.8767C19.0036 2.10345 18.0612 1.23119 13.2237 1.23119H9.47672C8.35155 1.23119 8.09594 1.48212 8.09594 2.50969V10.324H12.3183C16.1716 10.324 17.0065 9.631 17.4783 7.05012H18.4255V15.7845H17.4783C16.9695 12.8691 15.5134 12.1402 12.3183 12.1402H8.09594V20.2174ZM32.4602 20.2174C32.4602 22.7983 33.1458 23.0851 36.0949 23.2046V24.1246H23.8746V23.2046C26.8284 23.0851 27.5093 22.7983 27.5093 20.2174V3.34611C27.5093 0.753277 26.8284 0.466507 23.8746 0.358971V-0.584969H36.0949V0.358971C33.1458 0.466507 32.4602 0.753277 32.4602 3.34611V20.2174ZM61.5844 4.0391C61.5844 1.63745 60.9262 0.657688 58.2339 0.358971V-0.584969H66.9594V0.358971C64.2719 0.657688 63.6185 1.63745 63.6185 4.0391V24.734H62.3823L45.5155 5.23396V19.5244C45.5155 21.926 46.1641 22.9058 48.8564 23.2046V24.1246H40.1262V23.2046C42.8184 22.9058 43.4718 21.926 43.4718 19.5244V2.8801C42.6369 1.41043 41.6515 0.71743 40.1262 0.358971V-0.584969H46.8545L61.5844 16.4417V4.0391ZM74.7794 15.2707L78.4881 5.48487L82.1646 15.2707H74.7794ZM92.4858 24.1246V23.2046C90.6332 23.2404 90.1626 22.4399 89.216 20.1099L80.5229 -1.17047H79.3284L70.2721 20.8746C69.6522 22.404 68.8161 22.87 67.2538 23.2046V24.1246H75.1061V23.2046C73.398 23.2046 72.5631 22.8342 72.5631 21.6393C72.5631 20.6237 73.693 17.8875 73.9773 17.0869H82.9261C83.2151 17.8875 84.4144 20.6237 84.4144 21.6393C84.4144 22.8342 83.509 23.2046 81.7973 23.2046V24.1246H92.4858ZM116.449 4.0391C116.449 1.63745 115.797 0.657688 113.109 0.358971V-0.584969H121.833V0.358971C119.141 0.657688 118.484 1.63745 118.484 4.0391V24.734H117.251L100.379 5.23396L100.379 19.5244C100.379 21.926 101.033 22.9058 103.725 23.2046V24.1246H94.9948V23.2046C97.687 22.9058 98.3452 21.926 98.3452 19.5244V2.8801C97.5055 1.41043 96.5213 0.71743 94.9948 0.358971V-0.584969H101.723L116.448 16.4417L116.449 4.0391ZM147.668 18.3176C145.083 22.7266 141.701 24.734 136.573 24.734C128.538 24.734 123.774 19.4527 123.774 11.5547C123.774 5.92698 128.212 -1.17047 136.83 -1.17047C139.41 -1.17047 143.077 0.287247 143.627 0.287247C144.351 0.287247 144.57 -0.107056 145.158 -1.17047H146.39L146.902 7.08596H145.811C144.351 3.26244 141.776 0.50235 137.446 0.50235C131.627 0.50235 129.085 6.79922 129.085 11.5547C129.085 18.222 131.954 22.6907 138.103 22.6907C142.9 22.6907 145.555 19.1301 146.684 17.5648L147.668 18.3176ZM159.641 20.2174C159.641 22.7983 160.336 23.0851 163.279 23.2046V24.1246H151.06V23.2046C154.009 23.0851 154.7 22.7983 154.7 20.2174V3.34611C154.7 0.753277 154.009 0.466507 151.06 0.358971V-0.584969H163.279V0.358971C160.336 0.466507 159.641 0.753277 159.641 3.34611V20.2174ZM173.405 15.2707L177.113 5.48487L180.786 15.2707H173.405ZM191.116 24.1246V23.2046C189.259 23.2404 188.788 22.4399 187.845 20.1099L179.152 -1.17047H177.954L168.898 20.8746C168.277 22.404 167.442 22.87 165.878 23.2046V24.1246H173.731V23.2046C172.024 23.2046 171.189 22.8342 171.189 21.6393C171.189 20.6237 172.318 17.8875 172.607 17.0869H181.551C181.84 17.8875 183.039 20.6237 183.039 21.6393C183.039 22.8342 182.13 23.2046 180.422 23.2046V24.1246H191.116ZM193.277 24.1246V23.2046C195.642 23.097 196.332 22.7983 196.332 20.2174V3.34611C196.332 0.753277 195.642 0.466507 193.277 0.358971V-0.584969H204.693V0.358971C201.969 0.466507 201.273 0.753277 201.273 3.34611V20.6954C201.273 22.1889 201.712 22.6907 204.475 22.6907C208.912 22.6907 211.529 21.8902 213.638 17.529H214.586L212.914 24.1246H193.277ZM5.45025 63.1007C8.25839 62.9812 8.944 62.6944 8.944 60.1135V41.1273H5.89339C3.01955 41.1273 1.88961 42.2863 1.09172 45.6319H0L0.582888 39.3112H22.2513L22.8342 45.6319H21.7377C20.9446 42.2863 19.8158 41.1273 16.9468 41.1273H13.8902V60.1135C13.8902 62.6944 14.5806 62.9812 17.3756 63.1007V64.0207H5.45025V63.1007ZM33.9581 60.1135C33.9581 62.6944 34.6532 62.9812 37.5975 63.0888V64.0207H25.3772V63.0888C28.331 62.9812 29.0166 62.6944 29.0166 60.1135V43.2303C29.0166 40.6494 28.331 40.3626 25.3772 40.2551V39.2992H37.5975V40.2551C34.6532 40.3626 33.9581 40.6494 33.9581 43.2303V60.1135ZM63.5528 39.3112H72.0632V40.2551C69.6982 40.3626 69.0126 40.6494 69.0126 43.2303V60.1135C69.0126 62.6944 69.6982 62.9812 72.0632 63.1007V64.0207H60.9358V63.1007C63.3712 62.9812 64.0664 62.6944 64.0664 60.1135V42.7284H63.9912L55.7376 64.3314H54.6088L46.5415 42.7284H46.4675V59.4205C46.4675 61.8222 47.1196 62.802 49.8119 63.1007V64.0207H41.0877V63.1007C43.7752 62.802 44.4286 61.8222 44.4286 59.4205V42.6209C44.4286 40.9123 43.7047 40.2551 41.0877 40.2551V39.3112H50.0687L56.6477 56.4693L63.5528 39.3112ZM75.5725 64.0207V63.1007C77.9327 62.9812 78.6231 62.6944 78.6231 60.1135V43.2303C78.6231 40.6494 77.9327 40.3626 75.5725 40.2551V39.3112H96.2221L96.3672 44.7597H95.3543C94.4776 41.9996 93.5304 41.1273 88.6971 41.1273H84.9549C83.8213 41.1273 83.5741 41.3783 83.5741 42.3939V50.2202H87.7869C91.6408 50.2202 92.4757 49.5272 92.9523 46.9463H93.8983V55.6687H92.9523C92.4387 52.7652 90.9874 52.0364 87.7869 52.0364H83.5741V60.5915C83.5741 62.0731 84.0077 62.5869 88.371 62.5869C92.803 62.5869 95.4248 61.7864 97.533 57.4132H98.4766L96.8055 64.0207H75.5725ZM101.691 56.2542H102.643C103.693 59.5281 106.824 62.9453 110.463 62.9453C113.585 62.9453 114.714 60.7707 114.714 58.835C114.714 53.1595 101.915 52.108 101.915 45.0584C101.915 41.6411 105.223 38.7257 109.003 38.7257C112.711 38.7257 114.019 40.0281 115.661 40.0281C116.351 40.0281 116.786 39.4904 116.968 38.7257H117.915V46.5759H116.968C115.95 43.0152 113.408 40.3985 110.057 40.3985C107.299 40.3985 106.273 42.1788 106.273 43.8635C106.273 48.9058 119.078 49.0612 119.078 57.7478C119.077 61.631 115.88 64.6182 111.437 64.6182C107.075 64.6182 105.95 63.1007 104.239 63.1007C103.59 63.1007 103.147 63.5308 103.006 64.3314H101.691L101.691 56.2542Z" fill="white"/>
</svg>
